<svg width="390" height="167" viewBox="0 0 390 167" fill="none" xmlns="http://www.w3.org/2000/svg">
<g clip-path="url(#clip0_12_2)">
<mask id="mask0_12_2" style="mask-type:alpha" maskUnits="userSpaceOnUse" x="0" y="0" width="390" height="219">
<rect width="390" height="219" fill="#D9D9D9"/>
</mask>
<g mask="url(#mask0_12_2)">
<path d="M194.5 -52.5C277.075 -52.5 351.768 -40.2049 405.762 -20.374C432.765 -10.4564 454.512 1.31742 469.48 14.3154C484.453 27.3168 492.5 41.4077 492.5 56C492.5 70.5923 484.453 84.6832 469.48 97.6846C454.512 110.683 432.765 122.456 405.762 132.374C351.768 152.205 277.075 164.5 194.5 164.5C111.925 164.5 37.2323 152.205 -16.7617 132.374C-43.7646 122.456 -65.5117 110.683 -80.4805 97.6846C-95.453 84.6832 -103.5 70.5923 -103.5 56C-103.5 41.4077 -95.453 27.3168 -80.4805 14.3154C-65.5117 1.31742 -43.7646 -10.4564 -16.7617 -20.374C37.2323 -40.2049 111.925 -52.5 194.5 -52.5Z" fill="#F5BE66" stroke="#352C2F" stroke-width="3"/>
</g>
</g>
<defs>
<clipPath id="clip0_12_2">
<rect width="390" height="167" fill="white"/>
</clipPath>
</defs>
</svg>
